<?xml version="1.0" encoding="UTF-8" standalone="no"?>
<svg width="12px" height="18px" viewBox="0 0 12 18" version="1.1" xmlns="http://www.w3.org/2000/svg" xmlns:xlink="http://www.w3.org/1999/xlink" xmlns:sketch="http://www.bohemiancoding.com/sketch/ns">
    <!-- Generator: Sketch 3.1.1 (8761) - http://www.bohemiancoding.com/sketch -->
    <title>adb</title>
    <desc>Created with Sketch.</desc>
    <defs></defs>
    <g id="Page-1" stroke="none" stroke-width="1" fill="none" fill-rule="evenodd" sketch:type="MSPage">
        <g id="adb" sketch:type="MSLayerGroup" fill="#90C564">
            <path d="M0,12.2727273 C0,15.4636364 2.65714286,18 6,18 C9.34285714,18 12,15.4636364 12,12.2727273 L12,9 L0,9 L0,12.2727273 L0,12.2727273 Z M9.51428571,2.78181818 L11.3142857,1.06363636 L10.6285714,0.409090909 L8.65714286,2.29090909 C7.88571429,1.88181818 6.94285714,1.63636364 6,1.63636364 C5.05714286,1.63636364 4.11428571,1.88181818 3.34285714,2.20909091 L1.37142857,0.327272727 L0.685714286,1.06363636 L2.48571429,2.78181818 C0.942857143,3.76363636 0,5.48181818 0,7.36363636 L0,8.18181818 L12,8.18181818 L12,7.36363636 C12,5.48181818 11.0571429,3.76363636 9.51428571,2.78181818 L9.51428571,2.78181818 Z M3.42857143,6.54545455 C2.91428571,6.54545455 2.57142857,6.21818182 2.57142857,5.72727273 C2.57142857,5.23636364 2.91428571,4.90909091 3.42857143,4.90909091 C3.94285714,4.90909091 4.28571429,5.23636364 4.28571429,5.72727273 C4.28571429,6.21818182 3.94285714,6.54545455 3.42857143,6.54545455 L3.42857143,6.54545455 Z M8.57142857,6.54545455 C8.05714286,6.54545455 7.71428571,6.21818182 7.71428571,5.72727273 C7.71428571,5.23636364 8.05714286,4.90909091 8.57142857,4.90909091 C9.08571429,4.90909091 9.42857143,5.23636364 9.42857143,5.72727273 C9.42857143,6.21818182 9.08571429,6.54545455 8.57142857,6.54545455 L8.57142857,6.54545455 Z" id="Shape" sketch:type="MSShapeGroup"></path>
        </g>
    </g>
</svg>