<?xml version="1.0" encoding="UTF-8" standalone="no"?>
<svg width="14px" height="10px" viewBox="0 0 14 10" version="1.1" xmlns="http://www.w3.org/2000/svg" xmlns:xlink="http://www.w3.org/1999/xlink" xmlns:sketch="http://www.bohemiancoding.com/sketch/ns">
    <!-- Generator: Sketch 3.1.1 (8761) - http://www.bohemiancoding.com/sketch -->
    <title>Imported Layers 11</title>
    <desc>Created with Sketch.</desc>
    <defs></defs>
    <g id="Page-1" stroke="none" stroke-width="1" fill="none" fill-rule="evenodd" sketch:type="MSPage">
        <path d="M13.707,1.70733333 L13.707,1.70733333 L6.04033333,9.374 C5.85933333,9.55466667 5.60933333,9.66666667 5.33333333,9.66666667 C5.05733333,9.66666667 4.80733333,9.55466667 4.62633333,9.374 L0.293,5.04066667 C0.112,4.85966667 0,4.60966667 0,4.33333333 C0,3.781 0.447666667,3.33333333 1,3.33333333 C1.27633333,3.33333333 1.526,3.44533333 1.707,3.62633333 L5.33333333,7.25266667 L12.293,0.293 C12.474,0.112 12.724,0 13,0 C13.5523333,0 14,0.447666667 14,1 C14,1.276 13.888,1.52633333 13.707,1.70733333" id="Imported-Layers-11" fill="#90C564" sketch:type="MSShapeGroup"></path>
    </g>
</svg>