<?xml version="1.0" encoding="UTF-8" standalone="no"?>
<svg width="29px" height="20px" viewBox="0 0 29 20" version="1.1" xmlns="http://www.w3.org/2000/svg" xmlns:xlink="http://www.w3.org/1999/xlink" xmlns:sketch="http://www.bohemiancoding.com/sketch/ns">
    <!-- Generator: Sketch 3.1.1 (8761) - http://www.bohemiancoding.com/sketch -->
    <title>Imported Layers 9</title>
    <desc>Created with Sketch.</desc>
    <defs></defs>
    <g id="Page-1" stroke="none" stroke-width="1" fill="none" fill-rule="evenodd" sketch:type="MSPage">
        <path d="M12.512119,19.3944828 C12.1371905,19.7682759 11.6193333,20 11.047619,20 C10.4759048,20 9.95804762,19.7682759 9.58311905,19.3944828 L0.606928571,10.4289655 C0.232,10.0544828 0,9.53724138 0,8.96551724 C0,7.82275862 0.927309524,6.89655172 2.07142857,6.89655172 C2.64383333,6.89655172 3.161,7.12827586 3.53592857,7.50275862 L11.047619,15.0055172 L25.4640714,0.606206897 C25.839,0.231724138 26.3568571,0 26.9285714,0 C28.0726905,0 29,0.926206897 29,2.06896552 C29,2.64 28.768,3.15793103 28.3930714,3.53241379 L12.512119,19.3944828 Z" id="Imported-Layers-9" fill="#FFFFFF" sketch:type="MSShapeGroup"></path>
    </g>
</svg>