<?xml version="1.0" encoding="UTF-8" standalone="no"?>
<svg width="85px" height="85px" viewBox="0 0 85 85" version="1.1" xmlns="http://www.w3.org/2000/svg" xmlns:xlink="http://www.w3.org/1999/xlink" xmlns:sketch="http://www.bohemiancoding.com/sketch/ns">
    <!-- Generator: Sketch 3.1.1 (8761) - http://www.bohemiancoding.com/sketch -->
    <title>Oval 5</title>
    <desc>Created with Sketch.</desc>
    <defs></defs>
    <g id="Page-1" stroke="none" stroke-width="1" fill="none" fill-rule="evenodd" sketch:type="MSPage">
        <circle id="Oval-5" stroke="#90C564" stroke-width="2" stroke-linecap="round" stroke-linejoin="round" sketch:type="MSShapeGroup" cx="42.5" cy="42.5" r="41.5"></circle>
        <g id="Laptop-+-Tablet-+-Phone" sketch:type="MSLayerGroup" transform="translate(12.000000, 19.000000)">
            <g id="Laptop" sketch:type="MSShapeGroup">
                <rect id="Rectangle-3" stroke="#90C564" stroke-width="2" fill="#F6F7F7" x="2.67206478" y="0" width="45.4251012" height="32.2" rx="2"></rect>
                <rect id="Rectangle-4" fill="#90C564" x="0" y="28.175" width="50.7692308" height="4.025" rx="1"></rect>
            </g>
            <g id="Tablet" transform="translate(19.384615, 8.280000)" sketch:type="MSShapeGroup">
                <rect id="Rectangle-4" stroke="#90C564" stroke-width="2" fill="#F6F7F7" x="-0.0872510948" y="-0.420571429" width="40.7898868" height="29.44" rx="2"></rect>
                <rect id="Rectangle-5" stroke="#90C564" stroke-width="2" x="3.36384131" y="3.52342857" width="30" height="22" rx="1"></rect>
                <path d="M35.9337,16.8228571 C36.6203712,16.8228571 37.1770281,16.2579684 37.1770281,15.5611429 C37.1770281,14.8643173 36.6203712,14.2994286 35.9337,14.2994286 C35.2470289,14.2994286 34.6903719,14.8643173 34.6903719,15.5611429 C34.6903719,16.2579684 35.2470289,16.8228571 35.9337,16.8228571 Z" id="Oval-3" fill="#90C564"></path>
            </g>
            <g id="Phone" transform="translate(28.213846, 35.687692) rotate(-270.000000) translate(-28.213846, -35.687692) translate(18.713846, 19.187692)" sketch:type="MSShapeGroup">
                <rect id="Rectangle-1" stroke="#90C564" stroke-width="2" fill="#F6F7F7" x="1.0658141e-14" y="2.13162821e-14" width="19.3846154" height="33.12" rx="4"></rect>
                <rect id="Rectangle-2" stroke="#90C564" stroke-width="2" x="3.76923077" y="3.6" width="12" height="23" rx="1"></rect>
                <path d="M9.69230769,30.36 C10.4570097,30.36 11.0769231,29.742153 11.0769231,28.98 C11.0769231,28.217847 10.4570097,27.6 9.69230769,27.6 C8.92760573,27.6 8.30769231,28.217847 8.30769231,28.98 C8.30769231,29.742153 8.92760573,30.36 9.69230769,30.36 Z" id="Oval-2" fill="#90C564"></path>
            </g>
        </g>
    </g>
</svg>