<?xml version="1.0" encoding="UTF-8" standalone="no"?>
<svg width="85px" height="85px" viewBox="0 0 85 85" version="1.1" xmlns="http://www.w3.org/2000/svg" xmlns:xlink="http://www.w3.org/1999/xlink" xmlns:sketch="http://www.bohemiancoding.com/sketch/ns">
    <!-- Generator: Sketch 3.1.1 (8761) - http://www.bohemiancoding.com/sketch -->
    <title>Oval 5</title>
    <desc>Created with Sketch.</desc>
    <defs></defs>
    <g id="Page-1" stroke="none" stroke-width="1" fill="none" fill-rule="evenodd" sketch:type="MSPage">
        <circle id="Oval-5" stroke="#767F7F" stroke-width="2" sketch:type="MSShapeGroup" cx="42.5" cy="42.5" r="41.5"></circle>
        <g id="Fill-5-+-Fill-7" sketch:type="MSLayerGroup" transform="translate(22.000000, 16.000000)" fill="#767F7F">
            <path d="M42.0442105,11.2818511 L30.6036316,0.0488297872 C30.3958421,-0.155170213 30.1151053,-0.269106383 29.8211053,-0.269106383 L1.51310526,-0.269106383 C0.901894737,-0.269106383 0.407842105,0.21593617 0.407842105,0.816 L0.407842105,50.3630426 C0.407842105,50.9631064 0.901894737,51.4481489 1.51310526,51.4481489 L41.2627895,51.4481489 C41.874,51.4481489 42.3680526,50.9631064 42.3680526,50.3630426 L42.3680526,12.0479362 C42.3680526,11.760383 42.252,11.484766 42.0442105,11.2818511 L42.0442105,11.2818511 Z M40.1575263,49.2779362 L2.61836842,49.2779362 L2.61836842,1.90110638 L29.3635263,1.90110638 L40.1575263,12.4982553 L40.1575263,49.2779362 L40.1575263,49.2779362 Z" id="Fill-5" sketch:type="MSShapeGroup"></path>
            <path d="M28.1145789,28.6099149 L22.4932105,34.1917021 L22.4932105,14.3461915 C22.4932105,13.7461277 21.9980526,13.2610851 21.3879474,13.2610851 C20.7767368,13.2610851 20.2826842,13.7461277 20.2826842,14.3461915 L20.2826842,34.1917021 L14.6613158,28.6099149 C14.2335789,28.1834681 13.5339474,28.1812979 13.0984737,28.601234 C12.6641053,29.0222553 12.6596842,29.7102128 13.0896316,30.1355745 L20.6021053,37.5956809 L20.6032105,37.5956809 C20.6054211,37.5978511 20.6076316,37.6000213 20.6087368,37.6021915 C20.6098421,37.6021915 20.6098421,37.6032766 20.6098421,37.6032766 C20.6286316,37.6217234 20.6540526,37.628234 20.6728421,37.6445106 C20.7612632,37.7182979 20.8541053,37.7888298 20.9635263,37.8333191 C20.9668421,37.8344043 20.9690526,37.8365745 20.9723684,37.8376596 C21.105,37.8908298 21.2464737,37.9168723 21.3879474,37.9168723 C21.5283158,37.9168723 21.6686842,37.8908298 21.8013158,37.8376596 C21.8057368,37.8365745 21.8079474,37.8344043 21.8112632,37.8333191 C21.9228947,37.7877447 22.0179474,37.7172128 22.1063684,37.6412553 C22.1251579,37.6260638 22.1472632,37.6206383 22.1649474,37.6032766 C22.1649474,37.6032766 22.1649474,37.6021915 22.1660526,37.6021915 C22.1671579,37.6000213 22.1693684,37.5978511 22.1715789,37.5956809 L22.1737895,37.5956809 L29.6862632,30.1355745 C30.1162105,29.7102128 30.1117895,29.0233404 29.6785263,28.601234 C29.2430526,28.1812979 28.5434211,28.1834681 28.1145789,28.6099149" id="Fill-6" sketch:type="MSShapeGroup"></path>
        </g>
    </g>
</svg>