<?xml version="1.0" encoding="UTF-8" standalone="no"?>
<svg width="85px" height="85px" viewBox="0 0 85 85" version="1.1" xmlns="http://www.w3.org/2000/svg" xmlns:xlink="http://www.w3.org/1999/xlink" xmlns:sketch="http://www.bohemiancoding.com/sketch/ns">
    <!-- Generator: Sketch 3.1.1 (8761) - http://www.bohemiancoding.com/sketch -->
    <title>Oval 5</title>
    <desc>Created with Sketch.</desc>
    <defs></defs>
    <g id="Page-1" stroke="none" stroke-width="1" fill="none" fill-rule="evenodd" sketch:type="MSPage">
        <circle id="Oval-5" stroke="#90C564" stroke-width="2" stroke-linecap="round" stroke-linejoin="round" sketch:type="MSShapeGroup" cx="42.5" cy="42.5" r="41.5"></circle>
        <g id="Shape-+-Imported-Layers" sketch:type="MSLayerGroup" transform="translate(15.000000, 15.000000)" stroke="#90C564" stroke-width="2" stroke-linecap="round" stroke-linejoin="round">
            <path d="M38.5805859,17.4193548 L24.5835352,30.7578522 L17.6691797,24.1690642 L13.125,28.499648 L24.5835352,39.4193548 L43.125,21.7497153 L38.5805859,17.4193548 Z" id="Shape" sketch:type="MSShapeGroup"></path>
            <path d="M33.6156083,5.2669626 L41.1079187,3.13836422 L43.5602168,10.3370658 L51.2126206,11.8343358 L49.9405103,19.3155921 L56,24.0956498 L51.2943639,30.1455554 L54.3725378,37.113539 L47.3114617,40.3462879 L46.7037853,47.9060482 L38.9048605,47.5809455 L34.7501432,54 L28,50.1916546 L21.2498568,54 L17.0951395,47.5809455 L9.29621469,47.9060482 L8.68853832,40.3462879 L1.62746221,37.113539 L4.70594456,30.1455554 L0,24.0956498 L6.05948971,19.3155921 L4.78737937,11.8343358 L12.4397832,10.3370658 L14.8920813,3.13836422 L22.3843917,5.2669626 L28,0 L33.6156083,5.2669626 Z" id="Imported-Layers" sketch:type="MSShapeGroup"></path>
        </g>
    </g>
</svg>