<?xml version="1.0" encoding="UTF-8" standalone="no"?>
<svg width="85px" height="85px" viewBox="0 0 85 85" version="1.1" xmlns="http://www.w3.org/2000/svg" xmlns:xlink="http://www.w3.org/1999/xlink" xmlns:sketch="http://www.bohemiancoding.com/sketch/ns">
    <!-- Generator: Sketch 3.1.1 (8761) - http://www.bohemiancoding.com/sketch -->
    <title>Oval 5</title>
    <desc>Created with Sketch.</desc>
    <defs></defs>
    <g id="Page-1" stroke="none" stroke-width="1" fill="none" fill-rule="evenodd" sketch:type="MSPage">
        <circle id="Oval-5" stroke="#767F7F" stroke-width="2" stroke-linecap="round" stroke-linejoin="round" sketch:type="MSShapeGroup" cx="42.5" cy="42.5" r="41.5"></circle>
        <path d="M50.715,44.814 C51.182,44.001 51.625,43.168 52.024,42.3 C56.023,33.603 55.656,24.017 51.842,16 C43.274,18.324 35.759,24.286 31.76,32.983 C31.361,33.852 31.017,34.731 30.704,35.614 C28.76,41.573 32.048,46.642 32.048,46.642 L28.935,45.211 C28.824,50.102 29.869,54.925 31.942,59.284 C36.6,58.02 40.941,55.673 44.581,52.405 L41.468,50.973 C41.468,50.973 47.457,50.169 50.715,44.814 L50.715,44.814 Z M28,67.857 L39.313,43.25 L28,67.857 Z" id="Imported-Layers" stroke="#767F7F" stroke-width="2" stroke-linecap="round" stroke-linejoin="round" sketch:type="MSShapeGroup"></path>
    </g>
</svg>