<?xml version="1.0" encoding="UTF-8" standalone="no"?>
<svg width="85px" height="85px" viewBox="0 0 85 85" version="1.1" xmlns="http://www.w3.org/2000/svg" xmlns:xlink="http://www.w3.org/1999/xlink" xmlns:sketch="http://www.bohemiancoding.com/sketch/ns">
    <!-- Generator: Sketch 3.1.1 (8761) - http://www.bohemiancoding.com/sketch -->
    <title>Oval 5</title>
    <desc>Created with Sketch.</desc>
    <defs></defs>
    <g id="Page-1" stroke="none" stroke-width="1" fill="none" fill-rule="evenodd" sketch:type="MSPage">
        <circle id="Oval-5" stroke="#FFFFFF" stroke-width="2" sketch:type="MSShapeGroup" cx="42.5" cy="42.5" r="41.5"></circle>
        <g id="Fill-5-+-Fill-8" sketch:type="MSLayerGroup" transform="translate(23.000000, 15.658203)" fill="#FFFFFF">
            <path d="M41.8780926,11.3574609 L30.4827157,0.0491570396 C30.2757472,-0.156210148 29.9961196,-0.270909907 29.7032812,-0.270909907 L1.50712694,-0.270909907 C0.898331323,-0.270909907 0.406230709,0.217383353 0.406230709,0.82146875 L0.406230709,50.7005706 C0.406230709,51.304656 0.898331323,51.7929493 1.50712694,51.7929493 L41.0997589,51.7929493 C41.7085545,51.7929493 42.2006552,51.304656 42.2006552,50.7005706 L42.2006552,12.1286802 C42.2006552,11.8391999 42.0850611,11.5617357 41.8780926,11.3574609 L41.8780926,11.3574609 Z M39.9988627,49.6081919 L2.60802317,49.6081919 L2.60802317,1.91384741 L29.2475101,1.91384741 L39.9988627,12.5820174 L39.9988627,49.6081919 L39.9988627,49.6081919 Z" id="Fill-5" sketch:type="MSShapeGroup"></path>
        </g>
        <path d="M56.670711,41.7233559 L56.670711,41.7233559 L42.0921761,56.3018908 C41.7479959,56.6454371 41.2726089,56.8584105 40.7477816,56.8584105 C40.2229544,56.8584105 39.7475674,56.6454371 39.4033872,56.3018908 L31.1633457,48.0618493 C30.8191655,47.7176691 30.6061921,47.2422821 30.6061921,46.716821 C30.6061921,45.6665326 31.4574518,44.815273 32.5077402,44.815273 C33.0332013,44.815273 33.5079544,45.0282463 33.8521346,45.3724265 L40.7477816,52.2680735 L53.9819221,39.0339331 C54.3261023,38.6897529 54.8014893,38.4767795 55.3263166,38.4767795 C56.3766049,38.4767795 57.2278646,39.3280392 57.2278646,40.3783275 C57.2278646,40.9031548 57.0148912,41.3791757 56.670711,41.7233559" id="Imported-Layers-10" fill="#FFFFFF" sketch:type="MSShapeGroup"></path>
    </g>
</svg>