<?xml version="1.0" encoding="UTF-8" standalone="no"?>
<svg width="85px" height="85px" viewBox="0 0 85 85" version="1.1" xmlns="http://www.w3.org/2000/svg" xmlns:xlink="http://www.w3.org/1999/xlink" xmlns:sketch="http://www.bohemiancoding.com/sketch/ns">
    <!-- Generator: Sketch 3.1.1 (8761) - http://www.bohemiancoding.com/sketch -->
    <title>Oval 5</title>
    <desc>Created with Sketch.</desc>
    <defs></defs>
    <g id="Page-1" stroke="none" stroke-width="1" fill="none" fill-rule="evenodd" sketch:type="MSPage">
        <circle id="Oval-5" stroke="#FFFFFF" stroke-width="2" stroke-linecap="round" stroke-linejoin="round" sketch:type="MSShapeGroup" cx="42.5" cy="42.5" r="41.5"></circle>
        <path d="M55.8215293,32.911 L47.3865293,32.911 L54.8245293,20.515 C55.0095293,20.206 55.0145293,19.821 54.8365293,19.507 C54.6595293,19.194 54.3275293,19 53.9665293,19 L35.4185293,19 C34.9845293,19 34.5985293,19.281 34.4665293,19.695 L27.0475293,42.88 C26.9505293,43.184 27.0035293,43.516 27.1925293,43.774 C27.3805293,44.032 27.6805293,44.185 27.9995293,44.185 L36.7115293,44.185 L28.9285293,63.208 C28.7445293,63.661 28.9135293,64.181 29.3295293,64.437 C29.4915293,64.538 29.6735293,64.587 29.8545293,64.587 C30.1345293,64.587 30.4115293,64.469 30.6075293,64.245 L56.5745293,34.569 C56.8315293,34.274 56.8945293,33.855 56.7315293,33.498 C56.5695293,33.14 56.2135293,32.911 55.8215293,32.911 L55.8215293,32.911 Z M33.0505293,58.416 L39.1265293,43.563 C39.2525293,43.255 39.2165293,42.904 39.0315293,42.627 C38.8455293,42.351 38.5345293,42.185 38.2015293,42.185 L29.3705293,42.185 L36.1485293,21 L52.2005293,21 L44.7625293,33.396 C44.5775293,33.705 44.5725293,34.09 44.7505293,34.403 C44.9275293,34.717 45.2595293,34.911 45.6205293,34.911 L53.6175293,34.911 L33.0505293,58.416 L33.0505293,58.416 Z" id="Fill-2" fill="#FFFFFF" sketch:type="MSShapeGroup"></path>
    </g>
</svg>