<?xml version="1.0" encoding="UTF-8" standalone="no"?>
<svg width="85px" height="85px" viewBox="0 0 85 85" version="1.1" xmlns="http://www.w3.org/2000/svg" xmlns:xlink="http://www.w3.org/1999/xlink" xmlns:sketch="http://www.bohemiancoding.com/sketch/ns">
    <!-- Generator: Sketch 3.1.1 (8761) - http://www.bohemiancoding.com/sketch -->
    <title>Oval 5</title>
    <desc>Created with Sketch.</desc>
    <defs></defs>
    <g id="Page-1" stroke="none" stroke-width="1" fill="none" fill-rule="evenodd" sketch:type="MSPage">
        <circle id="Oval-5" stroke="#FFFFFF" stroke-width="2" stroke-linecap="round" stroke-linejoin="round" sketch:type="MSShapeGroup" cx="42.5" cy="42.5" r="41.5"></circle>
        <path d="M62.211,21 L23,21 C22.448,21 22,21.448 22,22 L22,62 C22,62.553 22.448,63 23,63 L62.211,63 C62.763,63 63.211,62.553 63.211,62 L63.211,22 C63.211,21.448 62.763,21 62.211,21 L62.211,21 Z M24,33 L26.985,33 L26.985,36 L24,36 L24,33 Z M24,38 L26.985,38 L26.985,41 L24,41 L24,38 Z M24,43 L26.985,43 L26.985,46 L24,46 L24,43 Z M24,48 L26.985,48 L26.985,51 L24,51 L24,48 Z M24,28 L26.985,28 L26.985,31 L24,31 L24,28 Z M24,53 L26.985,53 L26.985,56 L24,56 L24,53 Z M28.984,57.076 C28.987,57.05 29,57.027 29,57 C29,56.973 28.987,56.95 28.984,56.924 L28.984,52.076 C28.987,52.05 29,52.027 29,52 C29,51.973 28.987,51.95 28.984,51.924 L28.984,47.076 C28.987,47.05 29,47.027 29,47 C29,46.973 28.987,46.95 28.984,46.924 L28.984,42.076 C28.987,42.05 29,42.027 29,42 C29,41.973 28.987,41.95 28.984,41.924 L28.984,37.076 C28.987,37.05 29,37.027 29,37 C29,36.973 28.987,36.95 28.984,36.924 L28.984,32.076 C28.987,32.05 29,32.027 29,32 C29,31.973 28.987,31.951 28.984,31.924 L28.984,27.076 C28.987,27.05 29,27.027 29,27 C29,26.973 28.987,26.95 28.984,26.924 L28.984,23 L55.984,23 L55.984,61 L28.984,61 L28.984,57.076 L28.984,57.076 Z M57.985,48 L61.211,48 L61.211,51 L57.985,51 L57.985,48 Z M57.985,43 L61.211,43 L61.211,46 L57.985,46 L57.985,43 Z M57.985,38 L61.211,38 L61.211,41 L57.985,41 L57.985,38 Z M57.985,33 L61.211,33 L61.211,36 L57.985,36 L57.985,33 Z M57.985,28 L61.211,28 L61.211,31 L57.985,31 L57.985,28 Z M57.985,53 L61.211,53 L61.211,56 L57.985,56 L57.985,53 Z M57.985,23 L61.211,23 L61.211,26 L57.985,26 L57.985,23 Z M24,23 L26.985,23 L26.985,26 L24,26 L24,23 Z M24,58 L26.985,58 L26.985,61 L24,61 L24,58 Z M57.985,58 L61.211,58 L61.211,61 L57.985,61 L57.985,58 Z" id="Fill-25" fill="#FFFFFF" sketch:type="MSShapeGroup"></path>
        <path d="M49.182,40.72425 L39.5,35.13425 C39.191,34.95525 38.81,34.95525 38.5,35.13425 C38.191,35.31325 38,35.64325 38,36.00025 L38,47.18025 C38,47.53825 38.191,47.86825 38.5,48.04625 C38.655,48.13625 38.827,48.18025 39,48.18025 C39.173,48.18025 39.346,48.13625 39.5,48.04625 L49.182,42.45625 C49.492,42.27725 49.682,41.94725 49.682,41.59025 C49.682,41.23225 49.492,40.90225 49.182,40.72425 L49.182,40.72425 Z M40,45.44825 L40,37.73225 L46.682,41.59025 L40,45.44825 L40,45.44825 Z" id="Fill-26" fill="#FFFFFF" sketch:type="MSShapeGroup"></path>
    </g>
</svg>