<?xml version="1.0" encoding="UTF-8" standalone="no"?>
<svg width="85px" height="85px" viewBox="0 0 85 85" version="1.1" xmlns="http://www.w3.org/2000/svg" xmlns:xlink="http://www.w3.org/1999/xlink" xmlns:sketch="http://www.bohemiancoding.com/sketch/ns">
    <!-- Generator: Sketch 3.1.1 (8761) - http://www.bohemiancoding.com/sketch -->
    <title>Oval 5</title>
    <desc>Created with Sketch.</desc>
    <defs></defs>
    <g id="Page-1" stroke="none" stroke-width="1" fill="none" fill-rule="evenodd" sketch:type="MSPage">
        <circle id="Oval-5" stroke="#767F7F" stroke-width="2" stroke-linecap="round" stroke-linejoin="round" sketch:type="MSShapeGroup" cx="42.5" cy="42.5" r="41.5"></circle>
        <circle id="Oval-10" stroke="#767F7F" stroke-width="2" stroke-linecap="round" stroke-linejoin="round" sketch:type="MSShapeGroup" cx="42" cy="42" r="28"></circle>
        <path d="M22.5,23.5 L61.0292091,62.0292091" id="Line" stroke="#767F7F" stroke-width="2" stroke-linecap="square" sketch:type="MSShapeGroup"></path>
        <path d="M33.2724609,48.0341797 L32.6396484,45.6259766 L28.4648438,45.6259766 L27.8144531,48.0341797 L24,48.0341797 L28.1923828,35.1318359 L32.8242188,35.1318359 L37.0693359,48.0341797 L33.2724609,48.0341797 Z M31.9189453,42.7783203 L31.3652344,40.6689453 C31.2363275,40.200193 31.0795908,39.5937537 30.8950195,38.8496094 C30.7104483,38.105465 30.5888675,37.5722672 30.5302734,37.25 C30.4775388,37.5488296 30.3735359,38.0410122 30.2182617,38.7265625 C30.0629875,39.4121128 29.7187527,40.7626852 29.1855469,42.7783203 L31.9189453,42.7783203 Z M49.3652344,41.3369141 C49.3652344,43.481456 48.7749082,45.1337833 47.5942383,46.2939453 C46.4135683,47.4541074 44.7539169,48.0341797 42.6152344,48.0341797 L38.4580078,48.0341797 L38.4580078,35.1845703 L42.9052734,35.1845703 C44.9677838,35.1845703 46.560053,35.7119088 47.6821289,36.7666016 C48.8042048,37.8212943 49.3652344,39.3447166 49.3652344,41.3369141 L49.3652344,41.3369141 Z M45.7617188,41.4599609 C45.7617188,40.2822207 45.5288109,39.4091825 45.0629883,38.8408203 C44.5971656,38.2724581 43.8896532,37.9882812 42.9404297,37.9882812 L41.9296875,37.9882812 L41.9296875,45.1865234 L42.703125,45.1865234 C43.7578178,45.1865234 44.5312475,44.8803742 45.0234375,44.2680664 C45.5156275,43.6557587 45.7617188,42.7197329 45.7617188,41.4599609 L45.7617188,41.4599609 Z M60.0703125,44.1318359 C60.0703125,44.9287149 59.8681661,45.6362274 59.4638672,46.2543945 C59.0595683,46.8725617 58.4765663,47.3530256 57.7148438,47.6958008 C56.9531212,48.0385759 56.0595754,48.2099609 55.0341797,48.2099609 C54.1787067,48.2099609 53.4609404,48.1499029 52.8808594,48.0297852 C52.3007783,47.9096674 51.6972688,47.7001968 51.0703125,47.4013672 L51.0703125,44.3076172 C51.7324252,44.6474626 52.4208949,44.9125967 53.1357422,45.1030273 C53.8505895,45.293458 54.5068329,45.3886719 55.1044922,45.3886719 C55.6201198,45.3886719 55.9980457,45.2993173 56.2382812,45.1206055 C56.4785168,44.9418936 56.5986328,44.7119155 56.5986328,44.4306641 C56.5986328,44.2548819 56.5502935,44.1010749 56.4536133,43.9692383 C56.3569331,43.8374017 56.2016612,43.7041022 55.987793,43.5693359 C55.7739247,43.4345696 55.2041062,43.1591818 54.2783203,42.7431641 C53.4404255,42.3623028 52.8120138,41.9931658 52.3930664,41.6357422 C51.974119,41.2783185 51.6635752,40.8681664 51.4614258,40.4052734 C51.2592763,39.9423805 51.1582031,39.3945344 51.1582031,38.7617188 C51.1582031,37.5781191 51.5888629,36.6552767 52.4501953,35.9931641 C53.3115277,35.3310514 54.4951097,35 56.0009766,35 C57.3310613,35 58.6874931,35.3076141 60.0703125,35.9228516 L59.0068359,38.6035156 C57.8056581,38.0527316 56.7685591,37.7773438 55.8955078,37.7773438 C55.4443337,37.7773438 55.116212,37.8564445 54.9111328,38.0146484 C54.7060537,38.1728524 54.6035156,38.3691395 54.6035156,38.6035156 C54.6035156,38.85547 54.7338854,39.0810537 54.9946289,39.2802734 C55.2553724,39.4794932 55.9628849,39.8427708 57.1171875,40.3701172 C58.2246149,40.8681666 58.9936502,41.4028292 59.4243164,41.9741211 C59.8549826,42.545413 60.0703125,43.2646441 60.0703125,44.1318359 L60.0703125,44.1318359 Z" id="ADS" fill="#767F7F" sketch:type="MSShapeGroup"></path>
    </g>
</svg>