<?xml version="1.0" encoding="UTF-8" standalone="no"?>
<svg width="85px" height="85px" viewBox="0 0 85 85" version="1.1" xmlns="http://www.w3.org/2000/svg" xmlns:xlink="http://www.w3.org/1999/xlink" xmlns:sketch="http://www.bohemiancoding.com/sketch/ns">
    <!-- Generator: Sketch 3.1.1 (8761) - http://www.bohemiancoding.com/sketch -->
    <title>Oval 5</title>
    <desc>Created with Sketch.</desc>
    <defs></defs>
    <g id="Page-1" stroke="none" stroke-width="1" fill="none" fill-rule="evenodd" sketch:type="MSPage">
        <circle id="Oval-5" stroke="#FFFFFF" stroke-width="2" stroke-linecap="round" stroke-linejoin="round" sketch:type="MSShapeGroup" cx="42.5" cy="42.5" r="41.5"></circle>
        <g id="path2-+-path2-2" sketch:type="MSLayerGroup" transform="translate(19.000000, 14.000000)" stroke-width="2" stroke="#FFFFFF">
            <g sketch:type="MSShapeGroup">
                <path d="M23.5158036,0 L23.7212508,0 L24.6062542,0.44639912 C25.1962564,0.743998534 25.5860794,0.93897746 25.7757229,1.0313359 C25.9653665,1.12369434 26.6106815,1.42385926 27.7116678,1.93183068 C28.8126541,2.43980209 29.3815848,2.69635331 29.41846,2.70148433 C29.4553351,2.70661536 29.7477023,2.82719443 30.2955615,3.06322155 C30.8434208,3.29924867 31.2648509,3.4737035 31.5598521,3.58658604 C31.8548532,3.69946857 32.2815512,3.8533993 32.8399462,4.04837823 C33.3983412,4.24335716 33.7512889,4.36650174 33.8987895,4.41781198 C34.0462901,4.46912223 34.2306658,4.53069452 34.4519166,4.60252886 C34.6731675,4.6743632 34.9576328,4.76159062 35.3053127,4.86421111 C35.6529926,4.96683159 36.0954943,5.08997618 36.6328178,5.23364486 C37.1701412,5.37731354 37.6916611,5.50558915 38.1973773,5.61847169 C38.7030935,5.73135422 39.0297019,5.80318857 39.1772024,5.83397471 C39.324703,5.86476086 39.793544,5.95198827 40.5837256,6.09565695 C41.3739072,6.23932564 41.8690876,6.32655305 42.069267,6.3573392 C42.2694463,6.38812534 42.7593589,6.46509071 43.5390047,6.58823529 C44.3186505,6.71137988 44.7137413,6.77295217 44.7242771,6.77295217 C44.7348128,6.77295217 45.1141,6.84478651 45.8621385,6.9884552 C46.6101771,7.13212388 46.9868303,7.20652373 46.9920982,7.21165476 L47,7.21935129 L46.9525891,9.51291919 C46.9209818,11.0419644 46.8419637,13.0174088 46.7155346,15.4392523 C46.5891056,17.8610958 46.4890159,19.5543339 46.4152656,20.5189665 C46.3415154,21.483599 46.2572293,22.309694 46.1624075,22.9972512 C46.0675857,23.6848085 45.9569603,24.3364486 45.8305313,24.9521715 C45.7041022,25.5678944 45.5671374,26.1887484 45.4196369,26.8147334 C45.2721363,27.4407183 45.1404394,27.989738 45.0245461,28.4617922 C44.9086528,28.9338464 44.771688,29.4418178 44.6136516,29.9857064 C44.4556153,30.529595 44.3607935,30.8579806 44.3291863,30.9708631 C44.297579,31.0837456 44.2501681,31.2274143 44.1869536,31.4018692 C44.1237391,31.576324 44.0499888,31.791827 43.9657028,32.0483782 C43.8814167,32.3049294 43.7497198,32.6743632 43.570612,33.1566795 C43.3915041,33.6389958 43.2440036,34.0238226 43.1281103,34.31116 C43.012217,34.5984973 42.8699843,34.942276 42.7014122,35.3424959 C42.5328402,35.7427158 42.3168572,36.2250321 42.0534633,36.7894447 C41.7900695,37.3538574 41.6320332,37.682243 41.5793544,37.7746014 C41.5266756,37.8669599 41.3343981,38.203042 41.0025219,38.7828477 C40.6706456,39.3626535 40.4704663,39.7064321 40.4019839,39.8141836 C40.3335015,39.9219351 40.1701973,40.1938794 39.9120713,40.6300165 C39.6539453,41.0661536 39.4853732,41.3432289 39.4063551,41.4612424 C39.3273369,41.579256 39.2061757,41.7639729 39.0428716,42.0153931 C38.8795674,42.2668133 38.7478704,42.4617922 38.6477808,42.6003299 C38.5476911,42.7388675 38.4317978,42.9030603 38.3001009,43.0929082 C38.1684039,43.2827561 38.0419749,43.4572109 37.9208137,43.6162727 C37.7996525,43.7753344 37.7048308,43.9087411 37.6363484,44.0164926 C37.5678659,44.1242441 37.4677763,44.2627817 37.3360794,44.4321056 C37.2043824,44.6014294 37.0779534,44.7707532 36.9567922,44.940077 C36.835631,45.1094008 36.7039341,45.2838556 36.5617014,45.4634415 C36.4194687,45.6430273 36.2983076,45.796958 36.1982179,45.9252336 C36.0981282,46.0535093 35.8847792,46.2972329 35.5581708,46.6564046 C35.2315624,47.0155763 34.8470074,47.4260583 34.4045057,47.8878505 C33.962004,48.3496427 33.5721811,48.7447315 33.235037,49.0731171 C32.8978928,49.4015027 32.6740081,49.6093091 32.5633826,49.6965366 C32.4527572,49.783764 32.1946312,50.004398 31.7890047,50.3584387 C31.3833782,50.7124794 31.1357879,50.9279824 31.046234,51.0049478 C30.9566801,51.0819131 30.7354293,51.271761 30.3824815,51.5744915 C30.0295337,51.8772219 29.7977471,52.0722008 29.6871217,52.1594283 C29.5764963,52.2466557 29.4500672,52.3492762 29.3078346,52.4672897 C29.1656019,52.5853033 28.9680565,52.7469305 28.7151984,52.9521715 C28.4623403,53.1574125 28.2700628,53.3087777 28.1383658,53.4062672 C28.0066689,53.5037566 27.8802399,53.5909841 27.7590787,53.6679494 C27.6379175,53.7449148 27.4166667,53.8783214 27.0953262,54.0681693 C26.7739857,54.2580172 26.5632706,54.3862928 26.4631809,54.4529962 C26.3630912,54.5196995 26.2498319,54.5889683 26.1234028,54.6608026 C25.9969738,54.732637 25.8652768,54.8147334 25.728312,54.9070918 C25.5913472,54.9994502 25.4912576,55.0661536 25.428043,55.1072018 C25.3648285,55.14825 25.2278637,55.2200843 25.0171486,55.3227048 C24.8064335,55.4253253 24.5535754,55.5433388 24.2585743,55.6767455 C23.9635732,55.8101521 23.758126,55.8973795 23.6422327,55.9384277 L23.4683927,56 L23.2787492,55.9538208 C23.1523201,55.9230346 23.0153553,55.8717244 22.8678547,55.79989 C22.7203542,55.7280557 22.472764,55.6049111 22.1250841,55.4304563 C21.7774042,55.2560015 21.5772248,55.14825 21.5245461,55.1072018 C21.4718673,55.0661536 21.3375364,54.9763606 21.1215535,54.837823 C20.9055705,54.6992853 20.7422663,54.5966648 20.6316409,54.5299615 C20.5210155,54.4632582 20.3050325,54.3349826 19.983692,54.1451347 C19.6623515,53.9552868 19.4411007,53.8218802 19.3199395,53.7449148 C19.1987783,53.6679494 19.0723492,53.580722 18.9406523,53.4832325 C18.8089554,53.3857431 18.6588209,53.270295 18.4902488,53.1368884 C18.3216768,53.0034818 18.097792,52.8213304 17.8185945,52.5904343 C17.539397,52.3595382 17.2970746,52.1594283 17.0916274,51.9901045 C16.8861802,51.8207806 16.5859112,51.5642294 16.1908204,51.2204508 C15.7957297,50.8766722 15.5428716,50.6611691 15.4322461,50.5739417 C15.3216207,50.4867143 15.0792984,50.2814733 14.7052791,49.9582188 C14.3312598,49.6349643 14.1231787,49.4528129 14.0810356,49.4117647 C14.0388926,49.3707165 13.851883,49.1885651 13.5200067,48.8653106 C13.1881305,48.5420561 12.9563439,48.31116 12.8246469,48.1726223 C12.69295,48.0340847 12.4032168,47.7262232 11.9554472,47.2490379 C11.5076777,46.7718527 11.2390159,46.4793843 11.149462,46.3716328 C11.0599081,46.2638813 10.9282112,46.1048195 10.7543712,45.8944475 C10.5805313,45.6840755 10.4435665,45.5147517 10.3434768,45.3864761 C10.2433871,45.2582005 10.1432975,45.1247938 10.0432078,44.9862562 C9.94311813,44.8477185 9.83776059,44.7040498 9.72713517,44.5552501 C9.61650975,44.4064504 9.51642009,44.2730438 9.42686617,44.1550302 C9.33731226,44.0370167 9.26092804,43.9318307 9.19771352,43.8394722 C9.13449899,43.7471138 9.04757902,43.6265347 8.9369536,43.477735 C8.82632818,43.3289353 8.73150639,43.1955287 8.65248823,43.0775151 C8.57347007,42.9595016 8.46811253,42.8055708 8.3364156,42.6157229 C8.20471867,42.425875 8.10462901,42.2770753 8.0361466,42.1693238 C7.9676642,42.0615723 7.85703878,41.8922485 7.70427034,41.6613524 C7.55150191,41.4304563 7.45141224,41.2713945 7.40400134,41.1841671 C7.35659045,41.0969397 7.22489352,40.8763057 7.00891056,40.522265 C6.79292759,40.1682243 6.65069491,39.9373282 6.58221251,39.8295767 C6.51373011,39.7218252 6.3425241,39.4267913 6.06859449,38.944475 C5.79466487,38.4621587 5.58921766,38.097856 5.45225286,37.8515668 C5.31528805,37.6052776 5.19412688,37.3743815 5.08876933,37.1588785 C4.98341179,36.9433755 4.83591123,36.6201209 4.64626765,36.1891149 C4.45662408,35.7581089 4.36180229,35.5374748 4.36180229,35.5272128 C4.36180229,35.5169507 4.2669805,35.2809236 4.07733692,34.8191314 C3.88769334,34.3573392 3.74019278,33.9930365 3.63483524,33.7262232 C3.5294777,33.4594099 3.38197714,33.054059 3.19233356,32.5101704 C3.00268998,31.9662818 2.8130464,31.3864761 2.62340282,30.7707532 C2.43375925,30.1550302 2.22304416,29.4059007 1.99125757,28.5233645 C1.75947097,27.6408283 1.59616678,26.9840572 1.50134499,26.5530511 C1.4065232,26.1220451 1.27482627,25.4960601 1.1062542,24.6750962 C0.937682134,23.8541323 0.837592468,23.3153747 0.805985205,23.0588235 C0.774377942,22.8022723 0.705895539,22.0172256 0.600537996,20.7036833 C0.495180453,19.3901411 0.42669805,18.3998534 0.395090787,17.7328202 C0.363483524,17.0657871 0.326608384,16.3577057 0.284465367,15.6085761 C0.242322349,14.8594466 0.184375701,13.6331318 0.11062542,11.9296317 C0.0368751401,10.2261316 0,9.02034085 0,8.31225948 L0,7.25013744 L0.102723605,7.19626168 C0.171206008,7.16034451 0.358215647,7.1167308 0.663752522,7.06542056 C0.969289397,7.01411032 1.39071957,6.947407 1.92804304,6.86531061 C2.46536651,6.78321422 3.28188747,6.64980759 4.37760592,6.46509071 C5.47332437,6.28037383 6.25823806,6.1469672 6.73234701,6.06487081 C7.20645595,5.98277442 7.83333333,5.85449881 8.61297915,5.68004398 C9.39262497,5.50558915 10.0669132,5.34139637 10.635844,5.18746564 C11.2047747,5.03353491 11.6946873,4.88986623 12.1055817,4.75645959 C12.5164761,4.62305296 12.8378166,4.52043247 13.0696032,4.44859813 C13.3013898,4.37676379 13.5226407,4.30492945 13.7333557,4.23309511 C13.9440708,4.16126077 14.365501,4.00733003 14.9976463,3.77130291 C15.6297915,3.53527579 16.2224277,3.29668316 16.7755548,3.05552501 C17.3286819,2.81436687 17.623683,2.69122228 17.6605582,2.68609126 C17.6974333,2.68096023 17.9634611,2.56551219 18.4586416,2.33974711 C18.953822,2.11398204 19.4015916,1.90874107 19.8019502,1.72402419 C20.2023089,1.53930731 20.5973997,1.35459043 20.9872226,1.16987356 C21.3770455,0.985156679 21.8616902,0.743998534 22.4411567,0.44639912 L23.3103564,0 L23.5158036,0 L23.5158036,0 Z" id="path2-2"></path>
                <g id="path2-+-Line-+-Line" transform="translate(6.000000, 6.000000)">
                    <path d="M17.6647613,-0.390909091 L18.3238063,-0.0481383377 C18.7631697,0.180375498 19.0534633,0.330091459 19.1946873,0.401009546 C19.3359112,0.471927633 19.8164649,0.702411415 20.6363484,1.09246089 C21.4562318,1.48251037 21.8799036,1.67950506 21.9073638,1.68344495 C21.934824,1.68738484 22.1525443,1.77997235 22.5605245,1.96120746 C22.9685048,2.14244257 23.2823358,2.27639895 23.5020175,2.36307662 C23.7216992,2.44975428 24.039453,2.56795109 24.4552791,2.71766705 C24.8711051,2.86738301 25.1339386,2.96194046 25.2437794,3.0013394 C25.3536203,3.04073833 25.4909213,3.08801706 25.6556826,3.14317557 C25.8204438,3.19833408 26.0322798,3.26531228 26.2911903,3.34411015 C26.5501009,3.42290802 26.8796234,3.51746547 27.2797579,3.6277825 C27.6798924,3.73809952 28.0682582,3.83659686 28.4448554,3.92327453 C28.8214526,4.00995219 29.0646716,4.0651107 29.1745124,4.08875006 C29.2843533,4.11238942 29.6334902,4.17936762 30.2219233,4.28968464 C30.8103564,4.40000167 31.1791078,4.46697986 31.3281775,4.49061922 C31.4772473,4.51425858 31.8420758,4.57335699 32.4226631,4.66791444 C33.0032504,4.76247189 33.2974669,4.80975061 33.3053127,4.80975061 C33.3131585,4.80975061 33.5956064,4.86490912 34.1526564,4.97522615 C34.7097063,5.08554317 34.9901928,5.14267163 34.9941157,5.14661152 L34.964694,6.91365386 C34.9411567,8.08774218 34.8823134,9.60460126 34.7881641,11.4642311 C34.6940148,13.3238609 34.6194799,14.6240259 34.5645595,15.3647259 C34.5096391,16.1054259 34.4468729,16.7397488 34.3762609,17.2676945 C34.305649,17.7956403 34.2232683,18.2960068 34.129119,18.768794 C34.0349697,19.2415813 33.9329747,19.7183084 33.8231338,20.1989755 C33.713293,20.6796425 33.6152208,21.1012111 33.5289173,21.4636813 C33.4426138,21.8261516 33.3406187,22.216201 33.2229321,22.6338298 C33.1052455,23.0514585 33.0346335,23.3036117 33.0110962,23.3902894 C32.9875588,23.476967 32.9522529,23.5872841 32.9051782,23.7212404 C32.8581036,23.8551968 32.8031831,24.0206724 32.7404169,24.217667 C32.6776508,24.4146617 32.5795786,24.6983341 32.4462004,25.0686841 C32.3128222,25.4390341 32.2029814,25.7345261 32.1166779,25.9551602 C32.0303744,26.1757942 31.9244564,26.4397671 31.798924,26.7470788 C31.6733916,27.0543905 31.5125532,27.4247405 31.3164089,27.8581288 C31.1202645,28.2915172 31.0025779,28.5436703 30.963349,28.6145884 C30.9241202,28.6855065 30.7809348,28.9435696 30.5337929,29.3887776 C30.286651,29.8339855 30.1375813,30.0979584 30.0865837,30.1806962 C30.0355862,30.263434 29.9139767,30.4722483 29.7217552,30.8071393 C29.5295337,31.1420303 29.4040013,31.3547845 29.345158,31.4454021 C29.2863147,31.5360196 29.1960883,31.6778558 29.0744788,31.8709106 C28.9528693,32.0639654 28.8547971,32.2136813 28.7802623,32.3200585 C28.7057274,32.4264356 28.6194239,32.5525122 28.5213517,32.6982883 C28.4232795,32.8440643 28.3291302,32.9780207 28.2389038,33.1001574 C28.1486774,33.2222941 28.0780655,33.3247314 28.0270679,33.4074691 C27.9760704,33.4902069 27.9015355,33.596584 27.8034633,33.7266005 C27.7053912,33.856617 27.6112419,33.9866335 27.5210155,34.11665 C27.4307891,34.2466665 27.3327169,34.3806229 27.2267989,34.5185192 C27.120881,34.6564154 27.0306546,34.7746123 26.9561197,34.8731096 C26.8815848,34.9716069 26.7227079,35.1587519 26.4794889,35.4345445 C26.2362699,35.710337 25.9498991,36.0255285 25.6203766,36.3801189 C25.2908541,36.7347094 25.0005604,37.0380812 24.7494956,37.2902344 C24.4984308,37.5423876 24.3317081,37.7019533 24.2493275,37.7689315 C24.1669469,37.8359097 23.9747254,38.0053251 23.6726631,38.2771778 C23.3706008,38.5490304 23.1862251,38.714506 23.119536,38.7736044 C23.0528469,38.8327028 22.8880856,38.9784789 22.6252522,39.2109326 C22.3624187,39.4433863 22.1898117,39.5931023 22.1074311,39.6600805 C22.0250504,39.7270587 21.9309011,39.8058565 21.8249832,39.8964741 C21.7190652,39.9870916 21.571957,40.1111983 21.3836584,40.268794 C21.1953598,40.4263898 21.0521744,40.5426167 20.9541022,40.6174746 C20.85603,40.6923326 20.7618807,40.7593108 20.6716543,40.8184092 C20.5814279,40.8775076 20.4166667,40.9799449 20.1773705,41.1257209 C19.9380744,41.271497 19.7811589,41.3699943 19.7066241,41.421213 C19.6320892,41.4724316 19.5477471,41.5256201 19.4535978,41.5807786 C19.3594486,41.6359372 19.2613764,41.6989755 19.1593813,41.7698935 C19.0573862,41.8408116 18.9828514,41.8920303 18.9357767,41.9235494 C18.8887021,41.9550686 18.786707,42.0102271 18.6297915,42.0890249 C18.472876,42.1678228 18.2845774,42.2584404 18.0648958,42.3608776 C17.8452141,42.4633148 17.6922215,42.530293 17.605918,42.5618122 L17.4764627,42.6090909 L17.3352387,42.5736319 C17.2410894,42.5499925 17.1390944,42.5105936 17.0292535,42.4554351 C16.9194127,42.4002765 16.735037,42.3057191 16.4761264,42.1717627 C16.2172159,42.0378063 16.0681462,41.9550686 16.0289173,41.9235494 C15.9896884,41.8920303 15.8896548,41.8230821 15.7288164,41.716705 C15.567978,41.6103279 15.4463685,41.53153 15.3639879,41.4803114 C15.2816073,41.4290927 15.1207689,41.3305954 14.8814728,41.1848193 C14.6421766,41.0390433 14.4774154,40.936606 14.387189,40.8775076 C14.2969626,40.8184092 14.2028133,40.751431 14.1047411,40.676573 C14.0066689,40.6017151 13.8948666,40.5130675 13.7693342,40.4106302 C13.6438018,40.308193 13.4770791,40.1683268 13.2691661,39.9910315 C13.0612531,39.8137363 12.8808003,39.6600805 12.7278077,39.530064 C12.5748151,39.4000475 12.3512105,39.2030528 12.0569939,38.9390799 C11.7627774,38.675107 11.5744788,38.5096315 11.4920982,38.4426533 C11.4097176,38.3756751 11.2292647,38.2180794 10.9507397,37.9698661 C10.6722148,37.7216528 10.5172607,37.5817865 10.4858776,37.5502674 C10.4544945,37.5187482 10.315232,37.378882 10.0680901,37.1306687 C9.82094822,36.8824554 9.64834118,36.7051602 9.550269,36.598783 C9.45219682,36.4924059 9.23643802,36.2560123 8.9029926,35.8896022 C8.56954719,35.5231921 8.36947994,35.2986181 8.30279085,35.2158804 C8.23610177,35.1331426 8.13802959,35.0110059 8.00857431,34.8494702 C7.87911903,34.6879346 7.77712396,34.5579181 7.70258911,34.4594208 C7.62805425,34.3609234 7.55351939,34.2584862 7.47898453,34.1521091 C7.40444967,34.0457319 7.32599193,33.9354149 7.2436113,33.821158 C7.16123067,33.7069011 7.08669581,33.6044638 7.02000672,33.5138463 C6.95331764,33.4232287 6.89643578,33.3424609 6.84936113,33.2715428 C6.80228648,33.2006247 6.73755884,33.1080372 6.65517821,32.9937803 C6.57279758,32.8795234 6.50218561,32.7770861 6.4433423,32.6864686 C6.38449899,32.595851 6.30604125,32.4776542 6.20796907,32.3318782 C6.10989688,32.1861021 6.03536203,32.0718452 5.98436449,31.9891074 C5.93336696,31.9063696 5.85098633,31.7763531 5.7372226,31.5990579 C5.62345887,31.4217627 5.54892401,31.299626 5.51361802,31.2326478 C5.47831204,31.1656696 5.38023986,30.9962542 5.21940148,30.7244015 C5.0585631,30.4525489 4.95264515,30.2752536 4.90164761,30.1925159 C4.85065008,30.1097781 4.72315624,29.8832342 4.51916611,29.5128842 C4.31517597,29.1425342 4.16218337,28.8628017 4.0601883,28.6736868 C3.95819323,28.4845719 3.86796682,28.3072767 3.78950908,28.1418012 C3.71105133,27.9763257 3.60121049,27.7281123 3.45998655,27.3971613 C3.31876261,27.0662102 3.24815064,26.8967948 3.24815064,26.888915 C3.24815064,26.8810352 3.17753867,26.6998001 3.03631473,26.3452097 C2.89509079,25.9906192 2.78524994,25.7108868 2.7067922,25.5060123 C2.62833445,25.3011378 2.51849361,24.9898862 2.37726967,24.5722575 C2.23604573,24.1546288 2.09482179,23.7094208 1.95359785,23.2366335 C1.81237391,22.7638463 1.65545842,22.1886218 1.48285138,21.5109601 C1.31024434,20.8332983 1.18863484,20.328992 1.11802286,19.9980409 C1.04741089,19.6670898 0.949338713,19.1864228 0.823806321,18.5560398 C0.69827393,17.9256568 0.623739072,17.5119679 0.600201748,17.3149733 C0.576664425,17.1179786 0.525666891,16.5151748 0.447209146,15.506562 C0.368751401,14.4979493 0.317753867,13.7375498 0.294216543,13.2253636 C0.27067922,12.7131774 0.243219009,12.1694721 0.211835911,11.5942476 C0.180452813,11.0190231 0.137301054,10.0773885 0.0823806321,8.7693438 C0.0274602107,7.46129908 -1.42108547e-14,6.53542406 -1.42108547e-14,5.99171873 L-1.42108547e-14,5.17616073 C0.127493835,5.10721259 0.266756333,5.07372349 0.494283793,5.03432455 C0.721811253,4.99492562 1.03564223,4.943707 1.43577673,4.8806687 C1.83591123,4.8176304 2.44395875,4.71519316 3.2599193,4.57335699 C4.07587985,4.43152082 4.66039005,4.32908358 5.0134499,4.26604528 C5.36650975,4.20300698 5.83333333,4.10450964 6.41392065,3.97055325 C6.99450796,3.83659686 7.49663753,3.71052027 7.92030935,3.59232345 C8.34398117,3.47412664 8.70880968,3.36380962 9.01479489,3.26137238 C9.32078009,3.15893515 9.56007622,3.08013727 9.73268325,3.02497876 C9.90529029,2.96982025 10.0700516,2.91466174 10.226967,2.85950322 C10.3838825,2.80434471 10.6977135,2.6861479 11.16846,2.50491279 C11.6392065,2.32367768 12.0805313,2.14047262 12.4924344,1.95529762 C12.9043376,1.77012261 13.1240193,1.67556516 13.1514795,1.67162527 C13.1789397,1.66768537 13.3770455,1.57903777 13.7457969,1.40568244 C14.1145483,1.23232712 14.4479937,1.07473137 14.7461332,0.932895197 C15.0442726,0.791059023 15.3384891,0.64922285 15.6287828,0.507386676 C15.9190764,0.365550502 16.2799821,0.180375498 16.7114997,-0.0481383377 L17.3587761,-0.390909091 L17.5117687,-0.390909091 L17.6647613,-0.390909091 Z" id="path2"></path>
                    <path d="M17.5,1.46590909 L17.5,41.5340909" id="Line" stroke-linecap="square"></path>
                    <path d="M1.82054308,19.5454545 L32.6283132,19.5454545" id="Line" stroke-linecap="square"></path>
                </g>
            </g>
        </g>
    </g>
</svg>